<svg xmlns="http://www.w3.org/2000/svg" width="32.073" height="28" viewBox="0 0 32.073 28">
  <g id="icon_service_request" transform="translate(-389.244 -218.454)">
    <path id="パス_173" data-name="パス 173" d="M407.975,226.848h-9.832a.7.7,0,1,0,0,1.4h9.832a.7.7,0,0,0,0-1.4Z" transform="translate(1.404 1.438)" fill="#216ca9"/>
    <path id="パス_174" data-name="パス 174" d="M407.975,230.446h-9.832a.7.7,0,1,0,0,1.4h9.832a.7.7,0,0,0,0-1.4Z" transform="translate(1.404 2.054)" fill="#216ca9"/>
    <path id="パス_175" data-name="パス 175" d="M407.975,223.251h-9.832a.7.7,0,1,0,0,1.4h9.832a.7.7,0,0,0,0-1.4Z" transform="translate(1.404 0.822)" fill="#216ca9"/>
    <path id="パス_176" data-name="パス 176" d="M407.359,234.043h-5.619a.7.7,0,0,0,0,1.4h5.619a.7.7,0,0,0,0-1.4Z" transform="translate(2.02 2.67)" fill="#216ca9"/>
    <path id="パス_177" data-name="パス 177" d="M406.366,238.84h-7.023a.7.7,0,1,0,0,1.4h7.023a.7.7,0,0,0,0-1.4Z" transform="translate(1.609 3.491)" fill="#216ca9"/>
    <path id="パス_178" data-name="パス 178" d="M417.932,235.634a.7.7,0,0,0-.993,0l-5.453,5.455-2.48-2.478a.7.7,0,1,0-.993.993l2.976,2.975a.7.7,0,0,0,.992,0l5.951-5.951A.7.7,0,0,0,417.932,235.634Z" transform="translate(3.179 2.907)" fill="#216ca9"/>
    <path id="パス_179" data-name="パス 179" d="M397,235.241l-3.6,3.6-3.585-3.6-.571.585,3.584,3.584-3.584,3.585.571.584,3.585-3.6,3.6,3.6.572-.584-3.585-3.585,3.585-3.6Z" transform="translate(0 2.875)" fill="#216ca9"/>
    <path id="パス_180" data-name="パス 180" d="M393.947,237.416a.7.7,0,0,0,.7-.7V220.561a.7.7,0,0,1,.7-.7h16.854a.7.7,0,0,1,.7.7v18.96a.7.7,0,1,0,1.405,0v-18.96a2.109,2.109,0,0,0-2.107-2.107H395.351a2.109,2.109,0,0,0-2.107,2.107v16.152A.7.7,0,0,0,393.947,237.416Z" transform="translate(0.685)" fill="#216ca9"/>
  </g>
</svg>
