<svg xmlns="http://www.w3.org/2000/svg" width="19.437" height="28" viewBox="0 0 19.437 28">
  <path id="icon_service_smartphone" d="M514.374,356.807H500.293a2.681,2.681,0,0,1-2.678-2.678V331.485a2.681,2.681,0,0,1,2.678-2.678h14.081a2.681,2.681,0,0,1,2.678,2.678v22.644A2.681,2.681,0,0,1,514.374,356.807Zm1.32-25.322a1.324,1.324,0,0,0-1.32-1.32H500.293a1.324,1.324,0,0,0-1.32,1.32v22.644a1.324,1.324,0,0,0,1.32,1.319h14.081a1.324,1.324,0,0,0,1.32-1.319Zm-2.768,16.824H501.741a1.121,1.121,0,0,1-1.119-1.119V332.778a1.121,1.121,0,0,1,1.119-1.119h11.186a1.121,1.121,0,0,1,1.119,1.119v14.411A1.121,1.121,0,0,1,512.927,348.309Zm-10.946-1.358h10.706V333.017H501.981Zm5.353,7.505a2.439,2.439,0,1,1,2.439-2.438A2.441,2.441,0,0,1,507.333,354.456Zm0-3.69a1.251,1.251,0,1,0,1.251,1.251A1.251,1.251,0,0,0,507.333,350.767Z" transform="translate(-497.615 -328.807)" fill="#216ca9"/>
</svg>
