<svg xmlns="http://www.w3.org/2000/svg" width="27.95" height="28" viewBox="0 0 27.95 28">
  <path id="icon_service_address" d="M82.6,403.826H61.976a2.214,2.214,0,0,0-2.211,2.211v3.7H57.614a.75.75,0,1,0,0,1.5h2.151v5.822H57.614a.75.75,0,1,0,0,1.5h2.151V424.4H57.614a.75.75,0,1,0,0,1.5h2.151v3.712a2.214,2.214,0,0,0,2.211,2.211H82.6a2.214,2.214,0,0,0,2.211-2.211V406.037A2.214,2.214,0,0,0,82.6,403.826Zm-18.413,26.5H61.976a.71.71,0,0,1-.71-.71V425.9h.811a.75.75,0,1,0,0-1.5h-.811v-5.844h.811a.75.75,0,1,0,0-1.5h-.811v-5.822h.811a.75.75,0,1,0,0-1.5h-.811v-3.7a.709.709,0,0,1,.71-.71h2.213Zm19.122-.71a.71.71,0,0,1-.71.71H65.691v-25H82.6a.709.709,0,0,1,.71.71Zm-4.8-14.061a3.849,3.849,0,0,0-7.7,0,3.8,3.8,0,0,0,.523,1.9,11.545,11.545,0,0,0-2.821,6.961,1.5,1.5,0,0,0,1.5,1.5H79.3a1.5,1.5,0,0,0,1.5-1.5,11.488,11.488,0,0,0-2.84-6.924A3.8,3.8,0,0,0,78.507,415.553Zm.8,8.862h-9.29a10.054,10.054,0,0,1,2.314-5.819,4.334,4.334,0,0,1,1.221-.986,2.342,2.342,0,1,1,3.457-2.056,2.315,2.315,0,0,1-.208.955,2.342,2.342,0,0,1-1.066,1.121,4.468,4.468,0,0,1,1.23.989A9.893,9.893,0,0,1,79.3,424.415Z" transform="translate(-56.863 -403.826)" fill="#216ca9"/>
</svg>
