<svg xmlns="http://www.w3.org/2000/svg" width="25.951" height="28" viewBox="0 0 25.951 28">
  <g id="icon_service_calendar" transform="translate(-179.963 -218.115)">
    <g id="グループ_217" data-name="グループ 217" transform="translate(187.167 231.961)">
      <path id="パス_164" data-name="パス 164" d="M187.615,232.792h-1a3.305,3.305,0,0,1,1.047-1.867,2.738,2.738,0,0,1,1.827-.654,3.03,3.03,0,0,1,1.431.35,2.591,2.591,0,0,1,1.026.944,2.343,2.343,0,0,1,.364,1.24,2.252,2.252,0,0,1-1.261,2.008,2.851,2.851,0,0,1,1.161.839,2.686,2.686,0,0,1,.64,1.747,3.123,3.123,0,0,1-.44,1.591,3.054,3.054,0,0,1-1.2,1.17,3.489,3.489,0,0,1-1.7.413,3.128,3.128,0,0,1-2.114-.729,3.577,3.577,0,0,1-1.107-2.145h.96a2.775,2.775,0,0,0,.727,1.38,2.24,2.24,0,0,0,1.547.54,2.328,2.328,0,0,0,1.714-.64,2.048,2.048,0,0,0,.647-1.5,1.945,1.945,0,0,0-.323-1.074,2.036,2.036,0,0,0-.868-.754,4.8,4.8,0,0,0-1.682-.313v-.9a3.08,3.08,0,0,0,1.227-.237,1.787,1.787,0,0,0,.8-.6,1.386,1.386,0,0,0,.251-.8,1.457,1.457,0,0,0-.509-1.107,1.844,1.844,0,0,0-1.292-.467,1.736,1.736,0,0,0-1.093.357A2.7,2.7,0,0,0,187.615,232.792Z" transform="translate(-186.288 -230.271)" fill="#216ca9"/>
      <path id="パス_165" data-name="パス 165" d="M194.216,230.488h2.514v9.81h-.974v-8.85h-1.54Z" transform="translate(-185.186 -230.241)" fill="#216ca9"/>
    </g>
    <g id="グループ_218" data-name="グループ 218" transform="translate(179.963 218.115)">
      <path id="パス_166" data-name="パス 166" d="M203.866,221.53h-3.415V218.8a.683.683,0,1,0-1.366,0v2.731h-5.464V218.8a.683.683,0,1,0-1.366,0v2.731h-5.464V218.8a.683.683,0,1,0-1.366,0v2.731h-3.415a2.051,2.051,0,0,0-2.049,2.049v4.1a.682.682,0,0,0,.683.682h24.585a.682.682,0,0,0,.682-.682v-4.1A2.05,2.05,0,0,0,203.866,221.53Zm.682,5.464h-23.22v-3.415a.683.683,0,0,1,.683-.682h3.415v1.366a.683.683,0,0,0,1.366,0V222.9h5.464v1.366a.683.683,0,0,0,1.366,0V222.9h5.464v1.366a.683.683,0,0,0,1.366,0V222.9h3.415a.683.683,0,0,1,.682.682Z" transform="translate(-179.963 -218.115)" fill="#216ca9"/>
      <path id="パス_167" data-name="パス 167" d="M205.232,228.308a.683.683,0,0,0-.683.683V242.65a.683.683,0,0,1-.682.682H182.012a.684.684,0,0,1-.683-.682V228.991a.683.683,0,1,0-1.366,0V242.65a2.051,2.051,0,0,0,2.049,2.048h21.854a2.05,2.05,0,0,0,2.048-2.048V228.991A.683.683,0,0,0,205.232,228.308Z" transform="translate(-179.963 -216.698)" fill="#216ca9"/>
    </g>
  </g>
</svg>
