<svg xmlns="http://www.w3.org/2000/svg" width="28" height="23.579" viewBox="0 0 28 23.579">
  <g id="icon_service_board" transform="translate(-119.56 -265.37)">
    <path id="パス_149" data-name="パス 149" d="M134.709,278.5h8.843a.736.736,0,0,0,.736-.737v-5.895a.736.736,0,0,0-.736-.736h-8.843a.736.736,0,0,0-.736.736v5.895A.736.736,0,0,0,134.709,278.5Zm.737-5.895h7.368v4.421h-7.368Z" transform="translate(0.324 0.13)" fill="#216ca9"/>
    <path id="パス_150" data-name="パス 150" d="M145.349,265.37H121.771a2.213,2.213,0,0,0-2.211,2.211v19.157a2.213,2.213,0,0,0,2.211,2.211h23.579a2.213,2.213,0,0,0,2.211-2.211V267.581A2.213,2.213,0,0,0,145.349,265.37Zm.736,21.368a.737.737,0,0,1-.736.736H121.771a.738.738,0,0,1-.737-.736V269.791h25.052Zm0-18.421H121.033v-.736a.738.738,0,0,1,.737-.737h23.579a.737.737,0,0,1,.736.737Z" fill="#216ca9"/>
    <path id="パス_151" data-name="パス 151" d="M125.341,275.491h4.421a.737.737,0,0,0,0-1.474h-4.421a.737.737,0,0,0,0,1.474Z" transform="translate(0.113 0.195)" fill="#216ca9"/>
    <path id="パス_152" data-name="パス 152" d="M125.341,281.255h4.421a.737.737,0,1,0,0-1.473h-4.421a.737.737,0,0,0,0,1.473Z" transform="translate(0.113 0.324)" fill="#216ca9"/>
    <path id="パス_153" data-name="パス 153" d="M125.341,278.373h4.421a.737.737,0,1,0,0-1.473h-4.421a.737.737,0,0,0,0,1.473Z" transform="translate(0.113 0.259)" fill="#216ca9"/>
    <path id="パス_154" data-name="パス 154" d="M124.654,285.871h5.895a2.212,2.212,0,0,0,2.21-2.211V273.346a2.212,2.212,0,0,0-2.21-2.211h-5.895a2.213,2.213,0,0,0-2.211,2.211v10.315A2.213,2.213,0,0,0,124.654,285.871Zm-.737-12.526a.737.737,0,0,1,.737-.737h5.895a.737.737,0,0,1,.736.737v10.315a.737.737,0,0,1-.736.737h-5.895a.737.737,0,0,1-.737-.737Z" transform="translate(0.065 0.13)" fill="#216ca9"/>
    <path id="パス_155" data-name="パス 155" d="M142.8,279.782H135.43a.737.737,0,1,0,0,1.473H142.8a.737.737,0,1,0,0-1.473Z" transform="translate(0.34 0.324)" fill="#216ca9"/>
    <path id="パス_156" data-name="パス 156" d="M142.8,282.665H135.43a.737.737,0,1,0,0,1.473H142.8a.737.737,0,1,0,0-1.473Z" transform="translate(0.34 0.389)" fill="#216ca9"/>
  </g>
</svg>
