<svg xmlns="http://www.w3.org/2000/svg" width="25.053" height="28" viewBox="0 0 25.053 28">
  <g id="icon_service_fileshare" transform="translate(-452.372 -265.508)">
    <path id="パス_169" data-name="パス 169" d="M467.448,272.7H464.5a.737.737,0,1,0,0,1.474h2.947a.737.737,0,1,0,0-1.474Z" transform="translate(2.608 1.647)" fill="#216ca9"/>
    <path id="パス_170" data-name="パス 170" d="M457.906,273.613a.736.736,0,0,0,.736-.736V267.4c0-.213.181-.42.316-.42h12.632c.135,0,.316.208.316.42v9.9a.737.737,0,1,0,1.473,0v-9.9a1.869,1.869,0,0,0-1.789-1.894H458.958a1.869,1.869,0,0,0-1.789,1.894v5.475A.736.736,0,0,0,457.906,273.613Z" transform="translate(1.098)" fill="#216ca9"/>
    <path id="パス_171" data-name="パス 171" d="M475.214,277.123h-8.1a1.917,1.917,0,0,1-1.487-.911l-.917-1.8a3.4,3.4,0,0,0-2.8-1.713h-7.322a2.213,2.213,0,0,0-2.211,2.21V289.65a2.213,2.213,0,0,0,2.211,2.211h20.631a2.213,2.213,0,0,0,2.211-2.211V279.334A2.213,2.213,0,0,0,475.214,277.123Zm.737,12.527a.738.738,0,0,1-.737.737H454.583a.738.738,0,0,1-.737-.737V274.913a.738.738,0,0,1,.737-.736H461.9a1.919,1.919,0,0,1,1.488.911l.917,1.8a3.4,3.4,0,0,0,2.8,1.713h8.1a.738.738,0,0,1,.737.737Z" transform="translate(0 1.647)" fill="#216ca9"/>
    <path id="パス_172" data-name="パス 172" d="M468.272,270.3H460.9a.737.737,0,0,0,0,1.475h7.369a.737.737,0,0,0,0-1.475Z" transform="translate(1.785 1.098)" fill="#216ca9"/>
  </g>
</svg>
