<svg xmlns="http://www.w3.org/2000/svg" width="29" height="28.716" viewBox="0 0 29 28.716">
  <g id="icon" transform="translate(-260.875 -187.427)">
    <path id="パス_226" data-name="パス 226" d="M289.375,197.578a.5.5,0,0,0,.5-.5v-8.146a1.506,1.506,0,0,0-1.5-1.505H262.379a1.506,1.506,0,0,0-1.5,1.505v25.706a1.507,1.507,0,0,0,1.5,1.505h25.992a1.507,1.507,0,0,0,1.5-1.505V198.592a.5.5,0,0,0-1,0v16.046a.505.505,0,0,1-.5.505H262.379a.505.505,0,0,1-.5-.505V193.167h27v3.911A.5.5,0,0,0,289.375,197.578Zm-27.5-5.411v-3.235a.5.5,0,0,1,.5-.505h25.992a.5.5,0,0,1,.5.505v3.235Z" fill="#216ca9"/>
    <path id="パス_227" data-name="パス 227" d="M264.853,188.941a1.389,1.389,0,1,0,1.388,1.389A1.39,1.39,0,0,0,264.853,188.941Zm0,1.778a.389.389,0,1,1,.388-.389A.389.389,0,0,1,264.853,190.719Z" fill="#216ca9"/>
    <path id="パス_228" data-name="パス 228" d="M268.473,188.941a1.389,1.389,0,1,0,1.389,1.389A1.391,1.391,0,0,0,268.473,188.941Zm0,1.778a.389.389,0,1,1,.389-.389A.39.39,0,0,1,268.473,190.719Z" fill="#216ca9"/>
    <path id="パス_229" data-name="パス 229" d="M272,188.941a1.389,1.389,0,1,0,1.388,1.389A1.391,1.391,0,0,0,272,188.941Zm0,1.778a.389.389,0,1,1,.388-.389A.39.39,0,0,1,272,190.719Z" fill="#216ca9"/>
    <path id="パス_230" data-name="パス 230" d="M265.338,214.151h15.487a1.878,1.878,0,0,0,1.875-1.875v-2.533a1.878,1.878,0,0,0-1.875-1.875H265.338a1.877,1.877,0,0,0-1.874,1.875v2.533A1.877,1.877,0,0,0,265.338,214.151Zm-.874-4.408a.875.875,0,0,1,.874-.875h15.487a.876.876,0,0,1,.875.875v2.533a.876.876,0,0,1-.875.875H265.338a.875.875,0,0,1-.874-.875Z" fill="#216ca9"/>
    <path id="パス_231" data-name="パス 231" d="M265.461,210.662h1.762a.5.5,0,0,0,0-1h-1.762a.5.5,0,0,0,0,1Z" fill="#216ca9"/>
    <path id="パス_232" data-name="パス 232" d="M268.744,210.662h8.7a.5.5,0,0,0,0-1h-8.7a.5.5,0,0,0,0,1Z" fill="#216ca9"/>
    <path id="パス_233" data-name="パス 233" d="M265.461,212.44h3a.5.5,0,0,0,0-1h-3a.5.5,0,0,0,0,1Z" fill="#216ca9"/>
    <path id="パス_234" data-name="パス 234" d="M271.469,211.44h-1.575a.5.5,0,0,0,0,1h1.575a.5.5,0,0,0,0-1Z" fill="#216ca9"/>
    <path id="パス_235" data-name="パス 235" d="M275.979,211.44h-2.9a.5.5,0,0,0,0,1h2.9a.5.5,0,0,0,0-1Z" fill="#216ca9"/>
    <path id="パス_236" data-name="パス 236" d="M278.651,204.445h-3.032a.5.5,0,0,0,0,1h3.032a1.185,1.185,0,0,0,1.184-1.184v-2.78a1.185,1.185,0,0,0-1.184-1.184h-14a1.186,1.186,0,0,0-1.184,1.184v2.78a1.186,1.186,0,0,0,1.184,1.184h1a2.374,2.374,0,0,1,.106,1.187.608.608,0,0,0,.234.575.6.6,0,0,0,.609.069,2.371,2.371,0,0,0,1.394-1.831h5.917a.5.5,0,0,0,0-1h-6.384a.5.5,0,0,0-.5.508,1.552,1.552,0,0,1-.258.938,2.885,2.885,0,0,0-.387-1.222.5.5,0,0,0-.417-.224h-1.313a.185.185,0,0,1-.184-.184v-2.78a.185.185,0,0,1,.184-.184h14a.184.184,0,0,1,.184.184v2.78A.184.184,0,0,1,278.651,204.445Z" fill="#216ca9"/>
    <path id="パス_237" data-name="パス 237" d="M286.8,199.092a1.184,1.184,0,0,0,1.183-1.184v-2.779a1.185,1.185,0,0,0-1.183-1.185H272.794a1.187,1.187,0,0,0-1.184,1.185v2.779a1.186,1.186,0,0,0,1.184,1.184h10.663a2.368,2.368,0,0,0,1.395,1.831.6.6,0,0,0,.609-.069.6.6,0,0,0,.232-.576,2.377,2.377,0,0,1,.106-1.186Zm-1.313-1a.5.5,0,0,0-.417.224,2.885,2.885,0,0,0-.387,1.222,1.552,1.552,0,0,1-.259-.938.5.5,0,0,0-.5-.508H272.794a.185.185,0,0,1-.184-.184v-2.779a.185.185,0,0,1,.184-.185H286.8a.184.184,0,0,1,.183.185v2.779a.184.184,0,0,1-.183.184Z" fill="#216ca9"/>
  </g>
</svg>
