<svg xmlns="http://www.w3.org/2000/svg" width="26" height="23.507" viewBox="0 0 26 23.507">
  <g id="icon_service_tasklist" transform="translate(-324.861 -195.834)">
    <path id="パス_158" data-name="パス 158" d="M332.549,196.043l-4.483,4.483-1.99-1.99a.712.712,0,1,0-1.007,1.007l2.494,2.494a.714.714,0,0,0,1.007,0l4.986-4.986a.712.712,0,0,0-1.007-1.007Z" fill="#216ca9"/>
    <path id="パス_159" data-name="パス 159" d="M332.549,203.238l-4.483,4.483-1.99-1.99a.712.712,0,1,0-1.007,1.007l2.494,2.494a.714.714,0,0,0,1.007,0l4.986-4.986a.712.712,0,0,0-1.007-1.007Z" transform="translate(0 1.353)" fill="#216ca9"/>
    <path id="パス_160" data-name="パス 160" d="M332.549,210.433l-4.483,4.483-1.99-1.99a.712.712,0,1,0-1.007,1.007l2.494,2.494a.714.714,0,0,0,1.007,0l4.986-4.987a.712.712,0,1,0-1.007-1.006Z" transform="translate(0 2.706)" fill="#216ca9"/>
    <path id="パス_161" data-name="パス 161" d="M336.666,199.586h11.4a.712.712,0,0,0,0-1.424h-11.4a.712.712,0,1,0,0,1.424Z" transform="translate(2.086 0.438)" fill="#216ca9"/>
    <path id="パス_162" data-name="パス 162" d="M348.063,205.357h-11.4a.712.712,0,1,0,0,1.424h11.4a.712.712,0,0,0,0-1.424Z" transform="translate(2.086 1.791)" fill="#216ca9"/>
    <path id="パス_163" data-name="パス 163" d="M348.063,212.552h-11.4a.712.712,0,1,0,0,1.424h11.4a.712.712,0,0,0,0-1.424Z" transform="translate(2.086 3.144)" fill="#216ca9"/>
  </g>
</svg>
